<mxfile host="app.diagrams.net" modified="2021-01-13T01:45:12.767Z" agent="5.0 (Windows NT 10.0; WOW64) AppleWebKit/537.36 (KHTML, like Gecko) Chrome/87.0.4280.88 Safari/537.36" etag="RIU29keWQx0U7LGptrBL" version="13.10.2" type="github">
  <diagram id="OE4Rbx_v9x57HFELVVt-" name="Page-1">
    <mxGraphModel dx="2247" dy="1915" grid="1" gridSize="10" guides="1" tooltips="1" connect="1" arrows="1" fold="1" page="1" pageScale="1" pageWidth="827" pageHeight="1169" math="0" shadow="0">
      <root>
        <mxCell id="0" />
        <mxCell id="1" parent="0" />
        <mxCell id="Iuwb1hiTrERbpkQI2ASB-1" value="" style="endArrow=none;dashed=1;html=1;dashPattern=1 3;strokeWidth=2;" edge="1" parent="1">
          <mxGeometry width="50" height="50" relative="1" as="geometry">
            <mxPoint x="200" y="-170" as="sourcePoint" />
            <mxPoint x="200" y="-810" as="targetPoint" />
          </mxGeometry>
        </mxCell>
        <mxCell id="Iuwb1hiTrERbpkQI2ASB-2" value="" style="endArrow=none;dashed=1;html=1;dashPattern=1 3;strokeWidth=2;" edge="1" parent="1">
          <mxGeometry width="50" height="50" relative="1" as="geometry">
            <mxPoint x="520" y="-170" as="sourcePoint" />
            <mxPoint x="520" y="-800" as="targetPoint" />
          </mxGeometry>
        </mxCell>
        <mxCell id="Iuwb1hiTrERbpkQI2ASB-4" value="大数据侧" style="text;html=1;strokeColor=none;fillColor=none;align=center;verticalAlign=middle;whiteSpace=wrap;rounded=0;" vertex="1" parent="1">
          <mxGeometry x="70" y="-840" width="70" height="20" as="geometry" />
        </mxCell>
        <mxCell id="Iuwb1hiTrERbpkQI2ASB-5" value="松鼠" style="text;html=1;strokeColor=none;fillColor=none;align=center;verticalAlign=middle;whiteSpace=wrap;rounded=0;" vertex="1" parent="1">
          <mxGeometry x="340" y="-840" width="70" height="20" as="geometry" />
        </mxCell>
        <mxCell id="Iuwb1hiTrERbpkQI2ASB-6" value="松果" style="text;html=1;strokeColor=none;fillColor=none;align=center;verticalAlign=middle;whiteSpace=wrap;rounded=0;" vertex="1" parent="1">
          <mxGeometry x="620" y="-840" width="70" height="20" as="geometry" />
        </mxCell>
        <mxCell id="Iuwb1hiTrERbpkQI2ASB-11" style="edgeStyle=orthogonalEdgeStyle;rounded=0;orthogonalLoop=1;jettySize=auto;html=1;entryX=0.5;entryY=0;entryDx=0;entryDy=0;entryPerimeter=0;" edge="1" parent="1" source="Iuwb1hiTrERbpkQI2ASB-7" target="Iuwb1hiTrERbpkQI2ASB-9">
          <mxGeometry relative="1" as="geometry" />
        </mxCell>
        <mxCell id="Iuwb1hiTrERbpkQI2ASB-7" value="" style="strokeWidth=2;html=1;shape=mxgraph.flowchart.start_1;whiteSpace=wrap;" vertex="1" parent="1">
          <mxGeometry x="50" y="-780" width="100" height="60" as="geometry" />
        </mxCell>
        <mxCell id="Iuwb1hiTrERbpkQI2ASB-8" value="" style="strokeWidth=2;html=1;shape=mxgraph.flowchart.terminator;whiteSpace=wrap;" vertex="1" parent="1">
          <mxGeometry x="50" y="-240" width="100" height="60" as="geometry" />
        </mxCell>
        <mxCell id="Iuwb1hiTrERbpkQI2ASB-12" style="edgeStyle=orthogonalEdgeStyle;rounded=0;orthogonalLoop=1;jettySize=auto;html=1;entryX=0.5;entryY=0;entryDx=0;entryDy=0;" edge="1" parent="1" source="Iuwb1hiTrERbpkQI2ASB-9" target="Iuwb1hiTrERbpkQI2ASB-10">
          <mxGeometry relative="1" as="geometry" />
        </mxCell>
        <mxCell id="Iuwb1hiTrERbpkQI2ASB-14" style="edgeStyle=orthogonalEdgeStyle;rounded=0;orthogonalLoop=1;jettySize=auto;html=1;entryX=0;entryY=0.5;entryDx=0;entryDy=0;exitX=0;exitY=0.5;exitDx=0;exitDy=0;exitPerimeter=0;" edge="1" parent="1" source="Iuwb1hiTrERbpkQI2ASB-9" target="Iuwb1hiTrERbpkQI2ASB-10">
          <mxGeometry relative="1" as="geometry">
            <Array as="points">
              <mxPoint x="-30" y="-640" />
              <mxPoint x="-30" y="-440" />
            </Array>
          </mxGeometry>
        </mxCell>
        <mxCell id="Iuwb1hiTrERbpkQI2ASB-9" value="" style="strokeWidth=2;html=1;shape=mxgraph.flowchart.decision;whiteSpace=wrap;" vertex="1" parent="1">
          <mxGeometry x="50" y="-670" width="100" height="60" as="geometry" />
        </mxCell>
        <mxCell id="Iuwb1hiTrERbpkQI2ASB-13" style="edgeStyle=orthogonalEdgeStyle;rounded=0;orthogonalLoop=1;jettySize=auto;html=1;entryX=0.5;entryY=0;entryDx=0;entryDy=0;entryPerimeter=0;" edge="1" parent="1" source="Iuwb1hiTrERbpkQI2ASB-10" target="Iuwb1hiTrERbpkQI2ASB-8">
          <mxGeometry relative="1" as="geometry" />
        </mxCell>
        <mxCell id="Iuwb1hiTrERbpkQI2ASB-10" value="大数据任务调度" style="shape=parallelogram;html=1;strokeWidth=2;perimeter=parallelogramPerimeter;whiteSpace=wrap;rounded=1;arcSize=12;size=0.23;" vertex="1" parent="1">
          <mxGeometry x="15" y="-470" width="170" height="60" as="geometry" />
        </mxCell>
        <mxCell id="Iuwb1hiTrERbpkQI2ASB-15" value="手动模型" style="shape=parallelogram;html=1;strokeWidth=2;perimeter=parallelogramPerimeter;whiteSpace=wrap;rounded=1;arcSize=12;size=0.23;" vertex="1" parent="1">
          <mxGeometry x="50" y="-560" width="100" height="60" as="geometry" />
        </mxCell>
        <mxCell id="Iuwb1hiTrERbpkQI2ASB-16" value="自动模型" style="shape=parallelogram;html=1;strokeWidth=2;perimeter=parallelogramPerimeter;whiteSpace=wrap;rounded=1;arcSize=12;size=0.23;" vertex="1" parent="1">
          <mxGeometry x="-80" y="-560" width="100" height="60" as="geometry" />
        </mxCell>
      </root>
    </mxGraphModel>
  </diagram>
</mxfile>
